# xmcd
#
# Track frame offsets:
#	182
#	12532
#	26045
#	37445
#	50320
#	59695
#	70170
#	81882
#	95095
#	108520
#	117995
#	126907
#	137357
#	148807
#	161595
#	175220
#
# Disc length: 2495 seconds
#
# Revision: 0
# Processed by: cddbd v1.4b42PL1 Copyright (c) Steve Scherf et al.
# Submitted via: EasyCDDAExtractor 4.5.0.2
#
DISCID=f009bd10
DTITLE=Jackie Wilson - The Greatest Hits
DYEAR=1900
DGENRE=
TTITLE0=Reet Petite
TTITLE1=Baby Workout
TTITLE2=To Be Loved
TTITLE3=Doggin' Around
TTITLE4=All My Love
TTITLE5=Whispers (Gettin' Louder)
TTITLE6=A Woman A Lover A Friend
TTITLE7=I Get The Sweetest Feeling
TTITLE8=(Ypur Love Keeps Lifting Me) Higher And Higher
TTITLE9=I'll Be Satisfied
TTITLE10=You Better Know It
TTITLE11=I'm Coming On Back To You
TTITLE12=Am I The Man
TTITLE13=Chain Gang (with Count Basie)
TTITLE14=Alone At Last
TTITLE15=Lonely Teardrops
EXTD=
EXTT0=
EXTT1=
EXTT2=
EXTT3=
EXTT4=
EXTT5=
EXTT6=
EXTT7=
EXTT8=
EXTT9=
EXTT10=
EXTT11=
EXTT12=
EXTT13=
EXTT14=
EXTT15=
PLAYORDER=
